<mxfile host="Electron" modified="2023-08-16T08:34:43.121Z" agent="Mozilla/5.0 (Windows NT 10.0; Win64; x64) AppleWebKit/537.36 (KHTML, like Gecko) draw.io/21.2.1 Chrome/112.0.5615.87 Electron/24.1.2 Safari/537.36" etag="Oxtq_saheGpTXYn15vvg" version="21.2.1" type="device">
  <diagram name="Sivu-1" id="viTp4ALAR5MBCfWYBSVw">
    <mxGraphModel dx="2074" dy="1196" grid="1" gridSize="10" guides="1" tooltips="1" connect="1" arrows="1" fold="1" page="1" pageScale="1" pageWidth="827" pageHeight="1169" math="0" shadow="0">
      <root>
        <mxCell id="0" />
        <mxCell id="1" parent="0" />
        <mxCell id="pBVxl8VJoOe88H3RlbfV-1" value="Internet" style="verticalLabelPosition=middle;sketch=0;aspect=fixed;html=1;verticalAlign=middle;strokeColor=none;align=center;outlineConnect=0;shape=mxgraph.citrix.cloud;horizontal=1;fontSize=24;labelPosition=center;" vertex="1" parent="1">
          <mxGeometry x="280" y="360" width="232.9" height="152" as="geometry" />
        </mxCell>
        <mxCell id="pBVxl8VJoOe88H3RlbfV-3" value="porssisahko.net" style="verticalLabelPosition=top;sketch=0;aspect=fixed;html=1;verticalAlign=bottom;strokeColor=none;align=center;outlineConnect=0;shape=mxgraph.citrix.web_server;labelPosition=center;fontSize=14;fontStyle=1" vertex="1" parent="1">
          <mxGeometry x="220" y="180" width="76.5" height="90" as="geometry" />
        </mxCell>
        <mxCell id="pBVxl8VJoOe88H3RlbfV-4" value="ilmatieteenlaitos.fi" style="verticalLabelPosition=top;sketch=0;aspect=fixed;html=1;verticalAlign=bottom;strokeColor=none;align=center;outlineConnect=0;shape=mxgraph.citrix.web_server;labelPosition=center;fontSize=14;fontStyle=1" vertex="1" parent="1">
          <mxGeometry x="510" y="180" width="76.5" height="90" as="geometry" />
        </mxCell>
        <mxCell id="pBVxl8VJoOe88H3RlbfV-5" value="NGINX reverse proxy" style="verticalLabelPosition=bottom;sketch=0;aspect=fixed;html=1;verticalAlign=top;strokeColor=none;align=center;outlineConnect=0;shape=mxgraph.citrix.web_server;labelPosition=center;fontSize=14;fontStyle=0" vertex="1" parent="1">
          <mxGeometry x="130" y="585" width="76.5" height="90" as="geometry" />
        </mxCell>
        <mxCell id="pBVxl8VJoOe88H3RlbfV-6" value="Node.js web server" style="verticalLabelPosition=bottom;sketch=0;aspect=fixed;html=1;verticalAlign=top;strokeColor=none;align=center;outlineConnect=0;shape=mxgraph.citrix.web_server;labelPosition=center;fontSize=14;fontStyle=0" vertex="1" parent="1">
          <mxGeometry x="420" y="585" width="76.5" height="90" as="geometry" />
        </mxCell>
        <mxCell id="pBVxl8VJoOe88H3RlbfV-7" value="PostgreSQL database server" style="verticalLabelPosition=bottom;sketch=0;aspect=fixed;html=1;verticalAlign=top;strokeColor=none;align=center;outlineConnect=0;shape=mxgraph.citrix.database_server;" vertex="1" parent="1">
          <mxGeometry x="680" y="585" width="80" height="90" as="geometry" />
        </mxCell>
        <mxCell id="pBVxl8VJoOe88H3RlbfV-8" value="Raspberry Pi microcontroller" style="verticalLabelPosition=bottom;sketch=0;aspect=fixed;html=1;verticalAlign=top;strokeColor=none;align=center;outlineConnect=0;shape=mxgraph.citrix.remote_office;" vertex="1" parent="1">
          <mxGeometry x="60" y="400" width="92" height="41.5" as="geometry" />
        </mxCell>
        <mxCell id="pBVxl8VJoOe88H3RlbfV-10" value="" style="endArrow=none;html=1;rounded=0;edgeStyle=orthogonalEdgeStyle;curved=1;" edge="1" parent="1" source="pBVxl8VJoOe88H3RlbfV-3" target="pBVxl8VJoOe88H3RlbfV-1">
          <mxGeometry width="50" height="50" relative="1" as="geometry">
            <mxPoint x="270" y="290" as="sourcePoint" />
            <mxPoint x="320" y="240" as="targetPoint" />
          </mxGeometry>
        </mxCell>
        <mxCell id="pBVxl8VJoOe88H3RlbfV-11" value="" style="endArrow=none;html=1;rounded=0;edgeStyle=orthogonalEdgeStyle;curved=1;" edge="1" parent="1" source="pBVxl8VJoOe88H3RlbfV-4">
          <mxGeometry width="50" height="50" relative="1" as="geometry">
            <mxPoint x="268" y="280" as="sourcePoint" />
            <mxPoint x="407" y="360" as="targetPoint" />
          </mxGeometry>
        </mxCell>
        <mxCell id="pBVxl8VJoOe88H3RlbfV-12" value="" style="endArrow=none;html=1;rounded=0;edgeStyle=orthogonalEdgeStyle;curved=1;" edge="1" parent="1" source="pBVxl8VJoOe88H3RlbfV-5" target="pBVxl8VJoOe88H3RlbfV-1">
          <mxGeometry width="50" height="50" relative="1" as="geometry">
            <mxPoint x="520" y="235" as="sourcePoint" />
            <mxPoint x="417" y="380" as="targetPoint" />
            <Array as="points">
              <mxPoint x="168" y="550" />
              <mxPoint x="260" y="550" />
              <mxPoint x="260" y="436" />
            </Array>
          </mxGeometry>
        </mxCell>
        <mxCell id="pBVxl8VJoOe88H3RlbfV-13" value="" style="endArrow=none;html=1;rounded=0;" edge="1" parent="1" source="pBVxl8VJoOe88H3RlbfV-5" target="pBVxl8VJoOe88H3RlbfV-6">
          <mxGeometry width="50" height="50" relative="1" as="geometry">
            <mxPoint x="210" y="630" as="sourcePoint" />
            <mxPoint x="310" y="610" as="targetPoint" />
          </mxGeometry>
        </mxCell>
        <mxCell id="pBVxl8VJoOe88H3RlbfV-14" value="" style="endArrow=none;html=1;rounded=0;" edge="1" parent="1">
          <mxGeometry width="50" height="50" relative="1" as="geometry">
            <mxPoint x="490" y="630" as="sourcePoint" />
            <mxPoint x="680" y="629.5" as="targetPoint" />
          </mxGeometry>
        </mxCell>
        <mxCell id="pBVxl8VJoOe88H3RlbfV-20" value="" style="endArrow=none;html=1;rounded=0;edgeStyle=orthogonalEdgeStyle;curved=1;" edge="1" parent="1" target="pBVxl8VJoOe88H3RlbfV-1">
          <mxGeometry width="50" height="50" relative="1" as="geometry">
            <mxPoint x="150" y="420" as="sourcePoint" />
            <mxPoint x="200" y="370" as="targetPoint" />
            <Array as="points">
              <mxPoint x="190" y="420" />
              <mxPoint x="190" y="436" />
            </Array>
          </mxGeometry>
        </mxCell>
      </root>
    </mxGraphModel>
  </diagram>
</mxfile>
